<?xml version="1.0" encoding="UTF-8"?>
<svg id="Laag_2" data-name="Laag 2" xmlns="http://www.w3.org/2000/svg" viewBox="0 0 690.18 626.01">
  <defs>
    <style>
      .cls-1 {
        fill: none;
        stroke: #f5ffeb;
        stroke-linecap: round;
        stroke-linejoin: round;
        stroke-width: 48px;
      }
    </style>
  </defs>
  <g id="Laag_1-2" data-name="Laag 1">
    <g>
      <path class="cls-1" d="m555.19,602.01c35.35,0,64-28.65,64-64s-28.65-64-64-64-64,28.65-64,64,28.65,64,64,64Z"/>
      <path class="cls-1" d="m235.19,602.01c35.35,0,64-28.65,64-64s-28.65-64-64-64-64,28.65-64,64,28.65,64,64,64Z"/>
      <path class="cls-1" d="m24,25.69s148.48-1.92,128,128l-22.08,129.92c-3.27,15.58-2.95,31.7.94,47.13,3.9,15.43,11.26,29.78,21.54,41.94,10.28,12.16,23.19,21.81,37.76,28.22,14.57,6.41,30.41,9.42,46.32,8.79h256c35.45-1.05,69.5-14.09,96.59-36.99,27.08-22.9,45.6-54.31,52.53-89.09l22.08-131.52c3.49-15.75,3.32-32.1-.5-47.78-3.83-15.68-11.21-30.26-21.56-42.63-10.36-12.37-23.43-22.2-38.19-28.71s-30.83-9.55-46.95-8.88h-278.4"/>
    </g>
  </g>
</svg>